<?xml version="1.0" encoding="UTF-8" standalone="no"?>
<!DOCTYPE svg PUBLIC "-//W3C//DTD SVG 1.1//EN" "http://www.w3.org/Graphics/SVG/1.1/DTD/svg11.dtd">
<svg width="100%" height="100%" viewBox="0 0 70 70" version="1.1" xmlns="http://www.w3.org/2000/svg" xmlns:xlink="http://www.w3.org/1999/xlink" xml:space="preserve" xmlns:serif="http://www.serif.com/" style="fill-rule:evenodd;clip-rule:evenodd;stroke-linejoin:round;stroke-miterlimit:2;">
    <g transform="matrix(1,0,0,1,-337,-351)">
        <g id="dicom-icono" transform="matrix(0.255208,0,0,0.238194,337,351)">
            <rect x="0" y="0" width="274.286" height="293.878" style="fill:none;"/>
            <g id="Capa-1" serif:id="Capa 1" transform="matrix(0.902815,0,0,0.967303,10.2893,4.80461)">
                <g transform="matrix(1,0,0,1,57.1431,128.357)">
                    <path d="M0,-52.631L50,-100L121.053,-100L171.053,-63.157L200,-7.894L168.421,47.369L18.421,47.369L5.895,-12.599L0,-52.631Z" style="fill:white;fill-rule:nonzero;"/>
                </g>
                <g transform="matrix(1,0,0,1,219.858,140.748)">
                    <path d="M0,12.381L-121.841,12.381C-139.218,12.381 -153.436,-1.836 -153.436,-19.213L-153.436,-21.98C-153.436,-36.812 -143.077,-49.34 -129.237,-52.692C-129.242,-52.986 -129.248,-53.28 -129.248,-53.575C-129.248,-82.294 -105.967,-105.577 -77.246,-105.577C-60.44,-105.577 -45.499,-97.601 -35.992,-85.232C-32.582,-86.225 -28.976,-86.76 -25.245,-86.76C-4.844,-86.76 11.834,-70.835 13.043,-50.739C23.96,-45.749 31.595,-34.713 31.595,-21.98L31.595,-19.213C31.595,-1.836 17.377,12.381 0,12.381M-70.159,-117.957C-107.062,-117.957 -139.989,-100.962 -161.559,-74.378C-161.57,-74.368 -161.581,-74.358 -161.592,-74.348C-180.723,-55.572 -195.721,-11.759 -195.721,-11.759L-183.336,-0.308L-206.187,64.629L-187.808,64.629L-187.808,117.34L-135.742,117.34L-135.742,130.338L-4.318,130.338L-4.318,97.205C26.94,76.057 47.489,40.274 47.489,-0.308C47.489,-65.284 -5.184,-117.957 -70.159,-117.957" style="fill:rgb(0,156,222);fill-rule:nonzero;"/>
                </g>
            </g>
        </g>
    </g>
</svg>
